<svg xmlns="http://www.w3.org/2000/svg" viewBox="0 0 662.96 246.4"><defs><style>.cls-1{fill:#fff;}.cls-2{fill:#a19f96;}.cls-3{fill:#fbb800;}</style></defs><g id="Ebene_2" data-name="Ebene 2"><g id="Ebene_3" data-name="Ebene 3"><path class="cls-1" d="M501.62,138.24c-3.28,0-3.69.14-4.52,2.73L492,156.85a16.22,16.22,0,0,0-1,4.93c0,.82,1.09,1.64,4.92,2.32l4.1.69c.82,1,1.1,4.1-.27,4.79-4.79-.28-10.27-.28-16-.41-4.65,0-7.8.41-14.1.41-1.5-.82-1.36-3.7-.41-4.79l3.7-.41c3.28-.42,6-1.51,8.35-6.85s4.79-12,8.48-21.89l12.31-33.39c3.16-8.63,5.75-13.42,5.35-17.39,6.57-1.5,11.62-8.21,11.9-8.21,1.78,0,2.6.69,3.15,2.74,1.1,4,2.73,9,6.16,18.75l18.61,53.65c2.87,8.21,4.1,11.35,9.17,12.17l5.2.83c.82.68,1.09,4-.14,4.79-6.57-.28-13.95-.41-21.07-.41-6.85,0-12.18.13-18.48.41a3.11,3.11,0,0,1-.27-4.79l4.38-.69c3.14-.54,3.69-1.5,3.69-2.32s-1-4.25-2.6-9.31l-3.69-11.77c-.68-2.19-1.78-2.46-6.57-2.46ZM516.26,131c3.15,0,3.83-.41,2.74-4l-3.56-11.09c-1.91-5.88-3.69-11.49-4.92-14.37-1.37,3-3.56,8.76-5.62,15.06l-3.42,10.26c-1.23,3.7-.55,4.11,2.88,4.11Z"/><path class="cls-1" d="M654.07,153.71c0,5.75.27,8.49,2.87,9,.54.54.41,2.87-.41,3.28a61.13,61.13,0,0,0-9.58,2.05c-4.79,1.51-16.56,3.29-24.22,3.29-9.3,0-17.25-1-27-4.79-16-6.43-27-21.62-27-41.33,0-17.11,7.66-32.16,24.09-41.33,9.3-5.06,20.38-7.25,32-7.25,15.19,0,22.72,3.28,27.1,3.28.41,4.11.54,13.69,1.91,22-.55,1.51-4.24,1.65-5.2.28C644.35,89.39,635.73,83,623,83c-21.76,0-32.29,18.07-32.29,39.69,0,19.57,6.7,31.2,15.59,37.23a33.51,33.51,0,0,0,18.75,5.2c7.8,0,9.45-1.51,9.45-10.41v-8.62c0-7.39-.82-8.21-7.39-9.17l-6-.82c-1.5-.82-1.5-4,0-4.79,9.72.27,16.43.41,23.14.41,6.56,0,13.26-.14,17.92-.41,1.09.82,1.09,4,0,4.79l-3.15.55c-4.1.68-4.92,2-4.92,9.44Z"/><path class="cls-1" d="M383.35,63.89c0-2.14.73-3,2.56-3.21,22.53,17.37,60.21,52.75,60.21,92.86S408.44,229,385.91,246.4c-1.83-.22-2.56-1.07-2.56-3.22,18.13-22.3,43.94-51,43.94-89.64S401.48,86.2,383.35,63.89Z"/><path class="cls-2" d="M392.18,182.5c0,2.15-.73,3-2.56,3.22C367.1,168.35,329.41,133,329.41,92.86S367.1,17.37,389.62,0c1.83.22,2.56,1.07,2.56,3.22-18.13,22.3-43.94,51-43.94,89.64S374.05,160.2,392.18,182.5Z"/><path class="cls-3" d="M387.77,109c8.38,0,15.18,7.37,15.18,16.47s-6.8,16.47-15.18,16.47-15.18-7.38-15.18-16.47S379.38,109,387.77,109Z"/><path class="cls-1" d="M83.29,79.54a183.49,183.49,0,0,0,1.65,21.51c-.55,1.65-4.27,2.2-5.24,1C76,89.19,67.15,82.29,53.78,82.29c-15.31,0-31.72,13.1-31.72,40.54S37.92,165,54.47,165s24.41-12,28.13-21.37c1.1-1.11,4.41-.69,5.24,1-1,10.2-3.32,18.48-5.24,21.65-7.45,2.07-17.24,5.1-28,5.1-13.5,0-27.29-3.17-37.08-10.48C7.58,153.31,0,141.86,0,124.77c0-16.83,7.17-28.69,16.69-36.55C26.48,80.09,40.54,76,54.88,76,69,76,79.15,79.26,83.29,79.54Z"/><path class="cls-1" d="M136.63,138c-3.31,0-3.72.14-4.55,2.76l-5.1,16a16.11,16.11,0,0,0-1,5c0,.83,1.11,1.66,5,2.34l4.15.69c.82,1,1.1,4.14-.28,4.83-4.83-.28-10.34-.28-16.14-.42-4.68,0-7.86.42-14.2.42-1.52-.83-1.38-3.72-.41-4.83l3.72-.41c3.31-.41,6.07-1.51,8.41-6.89s4.83-12.14,8.55-22.07l12.41-33.64c3.17-8.69,5.8-13.52,5.38-17.52,6.62-1.51,11.72-8.27,12-8.27,1.8,0,2.63.69,3.18,2.76,1.1,4,2.75,9.1,6.2,18.89l18.76,54.05c2.9,8.28,4.13,11.45,9.23,12.28l5.24.82c.83.69,1.11,4-.13,4.83-6.62-.28-14.07-.42-21.24-.42-6.89,0-12.27.14-18.61.42a3.13,3.13,0,0,1-.28-4.83l4.41-.69c3.18-.55,3.73-1.51,3.73-2.34s-1-4.27-2.63-9.38l-3.71-11.86c-.7-2.2-1.8-2.48-6.63-2.48Zm14.76-7.31c3.16,0,3.86-.41,2.75-4l-3.58-11.17c-1.94-5.93-3.72-11.58-5-14.48-1.38,3-3.58,8.83-5.65,15.17l-3.45,10.34c-1.24,3.72-.55,4.13,2.9,4.13Z"/><path class="cls-1" d="M306.77,175.2s-8,3.79-22.57-12.62c11.75-8.15,18.71-21.67,18.71-39.33,0-28-19.72-47.3-48.4-47.3s-49.22,21.1-49.22,48.4c0,28.82,20.13,47,47.84,47a60.6,60.6,0,0,0,19.52-3c15.2,20.88,35.12,12.56,35.12,12.56C309,178.44,308.41,176.45,306.77,175.2Zm-79.42-54c0-23,9.1-38.89,26.06-38.89s27.44,19.17,27.44,42.75c0,10.51-1.56,20-5.09,27.07-17.09-19-30.86-10-30.86-10-.1,1.13-.73,2.39,1,4,0,0,8.36-4.2,22.09,15.31A21.09,21.09,0,0,1,255.76,165C233.28,165,227.35,138,227.35,121.18Z"/></g></g></svg>